<?xml version="1.0" encoding="utf-8"?>
<!-- Generator: Adobe Illustrator 24.0.1, SVG Export Plug-In . SVG Version: 6.00 Build 0)  -->
<svg version="1.1" id="Calque_1" xmlns="http://www.w3.org/2000/svg" xmlns:xlink="http://www.w3.org/1999/xlink" x="0px" y="0px"
	 viewBox="0 0 800 800" style="enable-background:new 0 0 800 800;" xml:space="preserve">
<g>
	<path d="M348.9,235.8c0,0.2,0.1,0.4,0.1,0.7c1.1,5.6,6.6,9,12.1,7.5c3.7-1,6.6-4,7.7-7.7l57.1-15.9c0.2,0.3,0.4,0.7,0.7,1
		c-4.1,11-5.1,22.7-2.7,34c0.2,1.1,0.5,2.1,0.7,3c0,0,0,0,0,0c1,3.8,2.3,7.4,4,10.9c0,0.1,0.1,0.1,0.1,0.2l18.6,31.2
		c0.1,0.5,0.3,1,0.7,1.4l0.5,0.5l6.3,11.7c-1.1,2.2-1.4,4.7-0.9,7c1.1,5.6,6.6,9,12.1,7.5c5.5-1.5,9.1-7.3,7.9-12.9
		c-1-4.9-5.3-8.1-10.1-7.8l-5.2-9.8c0,0,0-0.1,0-0.1c-0.2-1.5-1-2.8-2.1-3.6L438,263.8c-1.3-2.8-2.4-5.7-3.2-8.8
		c-0.2-0.8-0.4-1.6-0.6-2.4c-0.2-1.2-0.4-2.4-0.6-3.6c-1.1-8.2,0-16.6,2.9-24.4c1.6-0.4,3.1-1.2,4.3-2.2l44.1,14.5
		c9.5,3.1,17.4,9.8,22.2,18.7l14.7,27.3l26.2,50.5c-4.2,2.2-8.8,2.9-13.3,1.9c-5.3-1.1-9.7-4.3-12.4-9l-34.3-59.1
		c1.3-2.3,1.8-5.1,1.3-7.7c-1.1-5.6-6.6-9-12.1-7.5c-5.5,1.5-9.1,7.3-7.9,12.9c1,4.7,4.9,7.8,9.4,7.8l34.5,59.4
		c4.1,7.1,10.8,12,18.9,13.6c4.6,1,9.3,0.8,13.9-0.4c3.4-0.9,6.6-2.4,9.6-4.4l0.2-0.1c3.5-2.4,4.8-7.2,2.9-10.9l-27.5-52.9
		l-14.8-27.4c-6-11.2-15.9-19.5-27.8-23.4l-43.9-14.4c0-0.1,0-0.3-0.1-0.4c-1.1-5.6-6.6-9-12.1-7.5c-2.8,0.8-5.1,2.6-6.6,5.1
		l-59.7,16.6c-2.4-2.3-5.9-3.2-9.3-2.3c-3.5,1-6.4,3.8-7.6,7.3c-0.7,0.5-1.1,1.3-1.3,2.2C347.9,234.1,348.2,235.1,348.9,235.8z"/>
	<path d="M560.6,506.3c-0.3-1.3-0.9-2.5-1.7-3.5l-71.6-83.1c0.6-1.8,0.8-3.8,0.4-5.7c-1.1-5.6-6.6-9-12.1-7.5
		c-5.5,1.5-9.1,7.3-7.9,12.9c1.1,5.4,6.2,8.7,11.5,7.6l69,80c0,0-0.1,0-0.1,0c-14.5,4-29.5,0.2-39.9-10.2l-19.6-20.5
		c-26.8-28.1-58.6-58.4-71.9-95.9c2.4,0,4.9-0.2,7.3-0.6c1.9-0.3,3.8-0.7,5.7-1.2c5.5-1.5,10.7-3.9,15.6-7.1
		c2.2,1.2,4.7,1.5,7.2,0.8c5.5-1.5,9.1-7.3,7.9-12.9c-1.1-5.6-6.6-9-12.1-7.5c-4.7,1.3-7.9,5.6-8.1,10.4c-4,2.6-8.2,4.6-12.7,5.8
		c-1.5,0.4-3,0.7-4.6,1c-4.3,0.7-8.6,0.7-12.8,0c0,0,0,0-0.1,0c-1.2-0.2-2.4-0.3-3.5-0.4c-1.1-0.1-2.2-0.2-3.2-0.4l-1.8-8.6
		c2.5-2.6,3.6-6.3,2.9-9.9c-1.1-5.6-6.6-9-12.1-7.5c-5.5,1.5-9.1,7.3-7.9,12.9c0.7,3.6,3.3,6.4,6.6,7.4l19.4,111.5
		c-15.5-1.1-28.6-12-32.6-27.5l-20.1-79.1c-2.2-9.1-1.2-18.6,2.8-26.6c3.7-7.5,9.9-13.3,17.4-16.4c8.9,0.7,19.9-0.7,32.7-4.2
		c2.9-0.8,5.9-1.7,8.8-2.7c2.3,1.6,5.3,2.2,8.2,1.4c5.5-1.5,9.1-7.3,7.9-12.9c-1.1-5.6-6.6-9-12.1-7.5c-4.2,1.1-7.3,4.8-8,9.1
		c-9.2,2.9-24,6.8-35.9,6c-0.6-0.3-1.2-0.4-1.9-0.3c-0.6,0.1-1.1,0.2-1.7,0.5c-10.8,4.1-19.6,12.1-24.8,22.6
		c-5.2,10.4-6.5,22.6-3.7,34.3l20.2,79.2c5.4,21.3,24.4,35.8,46.1,35.1c0,0,0,0,0.1,0c0.5,0,1.1-0.1,1.6-0.3c4.1-1.1,6.8-5.5,6-9.8
		l-16.6-95.5c0,0,0.1,0,0.1,0c13.6,40.9,46.8,74.2,75.9,104.7l19.6,20.6c0,0,0,0,0,0.1c13,13,31.6,17.7,49.7,12.8
		c1.7-0.5,3.5-1,5.2-1.7c0,0,0.1,0,0.1,0C559.2,514.4,561.4,510.2,560.6,506.3z"/>
	<path d="M353.5,300.6c-0.4,1.5-0.4,3.1-0.1,4.6c1.1,5.6,6.6,9,12.1,7.5c5.5-1.5,9.1-7.3,7.9-12.9c-1.1-5.6-6.6-9-12.1-7.5
		c-0.1,0-0.2,0.1-0.3,0.1c-2.6-3.6-4.6-7.6-6.1-11.9c-0.6-1.8-1.1-3.6-1.5-5.5c0,0,0,0,0-0.1l0-0.1c0-0.1,0-0.1,0-0.2
		c-0.1-0.4-0.2-0.8-0.2-1.1l0-0.2c0-0.2-0.1-0.5-0.1-0.8l0-0.1c0-0.3-0.1-0.6-0.1-0.9l0-0.1c-0.1-0.4-0.1-0.8-0.2-1.2
		c3.5-2.5,5.5-7,4.6-11.3c-1.1-5.6-6.6-9-12.1-7.5c-5.5,1.5-9.1,7.3-7.9,12.9c0.6,2.9,2.3,5.2,4.7,6.6c0.1,0.8,0.3,1.6,0.4,2.6
		l0.1,0.4c0,0.3,0.1,0.5,0.1,0.8c0,0.1,0,0.2,0,0.3c0,0.3,0.1,0.6,0.1,0.9c0,0.1,0,0.2,0.1,0.3c0.1,0.5,0.2,0.9,0.3,1.4
		c0,0.2,0.1,0.4,0.1,0.5c0.1,0.7,0.3,1.4,0.5,2.2l0.1,0.4c-3.4,2.5-7.5,5.5-11.8,8.8l-0.2,0.2c-12.6,9.4-28.1,20.8-33.3,24.8
		c-6.2-1.5-11.5-5.7-14.5-11.5c-3.1-6.2-3.4-13.5-0.8-20.3c12.1-31.4,21.5-55.7,27.8-72c3.8-9.8,13.7-15.8,23.5-14.4l2.5,0.4
		l-20.5,58.9c-5.2,1.7-8.5,7.3-7.4,12.8c1.1,5.6,6.6,9,12.1,7.5c5.5-1.5,9.1-7.3,7.9-12.9c-0.4-1.9-1.2-3.5-2.5-4.8l21.2-61
		c0.8-2.2,0.8-4.5-0.2-6.5c-1-2.1-2.8-3.6-5-4.1c-0.1,0-0.2,0-0.2,0l-5.9-0.9c-14.8-2.2-29.6,6.9-35.3,21.6
		c-6.2,16.1-15.6,40.3-27.8,72c-3.8,9.7-3.3,20.4,1.2,29.3c4.5,8.9,12.6,15,22.2,16.9l0.4,0.1c2.1,0.4,4.5-0.2,6.2-1.6
		c3.5-2.7,21.2-15.9,34.2-25.5c3.6-2.7,7-5.2,10-7.4C349.2,294.4,351.2,297.6,353.5,300.6z"/>
	<path d="M378.7,209c2,4.1,6.6,6.3,11.2,5c5.5-1.5,9.1-7.3,7.9-12.9c-1.1-5.6-6.6-9-12.1-7.5c-2.5,0.7-4.7,2.3-6.1,4.4
		c-6.1-1.5-10.9-6.5-12.2-12.9c-2-9.6,4.1-19.5,13.5-22.1c8.4-2.3,16.7,1.9,19.8,9.8c-0.4,1.2-0.4,2.4-0.2,3.6
		c0.8,3.7,4.3,5.9,8,4.9c3.6-1,6-4.8,5.2-8.5c-0.4-1.9-1.5-3.4-3.1-4.3c-4.9-12.8-18.3-19.6-31.8-15.9c-15.1,4.1-24.9,20-21.7,35.4
		C359.4,199,367.9,207.3,378.7,209z"/>
</g>
<g>
	<path d="M153.9,641.7c-11.3,0-18.9-4.2-24.4-10.4l9.2-9.3c4.3,4.9,9.8,7.4,16.1,7.4c6.9,0,10.1-3,10.1-7.7c0-3.6-1.5-6.1-7.5-6.9
		l-6.4-0.8c-13.6-1.8-19.7-8.4-19.7-19.2c0-5.8,2.3-10.7,6.5-14.1c4.1-3.4,10-5.4,17.7-5.4c9.7,0,17.1,3.1,22.3,9l-9.3,9.4
		c-3-3.6-7.2-6.1-13.8-6.1c-6.3,0-9.3,2.3-9.3,6.3c0,4.4,2.2,6.1,7.7,6.9l6.4,1c13.3,2.1,19.5,7.9,19.5,19.1
		c0,6.2-2.2,11.4-6.5,15.1C168.2,639.5,161.9,641.7,153.9,641.7z"/>
	<path d="M189.8,640.5v-48.4h13.6v8.2h0.6c1.8-5.2,5.7-9.3,13-9.3c6.6,0,11.4,3.4,13.6,9.8h0.3c0.8-2.7,2.7-5.2,5.3-6.9
		c2.6-1.8,5.8-2.9,9.5-2.9c9.3,0,14.5,6.9,14.5,19.2v30.3h-13.6v-29.2c0-6.2-2.2-9.2-6.6-9.2c-4.1,0-8,2.3-8,7.1v31.3h-13.6v-29.2
		c0-6.2-2.2-9.2-6.6-9.2c-1.9,0-4,0.6-5.4,1.8c-1.6,1.2-2.6,3-2.6,5.3v31.3H189.8z"/>
	<path d="M311,608.7v31.8h-12.3v-8.5h-0.6c-1.5,6.3-6.8,9.6-14.2,9.6c-9.7,0-15-5.6-15-14.1c0-10.2,7.9-15.1,20.7-15.1h7.7v-3
		c0-4.7-2.2-7.7-8-7.7c-5.4,0-8.3,2.8-10.4,5.7l-8.1-7.2c4-5.8,9.3-9.2,19.5-9.2C304.1,591,311,597.2,311,608.7z M297.4,620.2h-6.6
		c-5.3,0-8,1.8-8,5.4v1.4c0,3.6,2.3,5.2,6.4,5.2c4.5,0,8.3-1.8,8.3-6.3V620.2z"/>
	<path d="M323.2,640.5v-48.4h13.6v10.5h0.5c0.5-2.7,1.8-5.3,3.8-7.3c2-1.9,4.8-3.2,8.6-3.2h2.4v12.7h-3.4c-8,0-11.8,1.8-11.8,7.4
		v28.3H323.2z"/>
	<path d="M377.8,640.5c-9.5,0-14.4-4.9-14.4-14.1v-23.7h-6.8v-10.6h3.4c3.7,0,4.8-1.8,4.8-5.2v-7.9h12.3v13.1h9.6v10.6h-9.6v27.2
		h8.9v10.6H377.8z"/>
	<path d="M444.6,641.7c-8.8,0-15.9-2.8-20.7-8.3c-4.9-5.4-7.7-13.6-7.7-24.5c0-10.8,2.9-19.4,7.7-25.1s12-8.7,20.7-8.7
		c11.9,0,19.4,4.7,24.1,15.1l-12.1,6.3c-1.8-5.4-5-8.9-12-8.9c-8.2,0-13.6,5.4-13.6,15.7v10.3c0,10.2,5.4,15.7,13.6,15.7
		c6.9,0,10.9-4.3,12.8-9.6l11.4,6.6C464.1,636.1,456.5,641.7,444.6,641.7z"/>
	<path d="M497.5,641.7c-7.1,0-12.7-2.4-16.6-6.8c-3.9-4.4-6.1-10.8-6.1-18.5s2.2-14.1,6.1-18.5c3.9-4.3,9.5-6.7,16.6-6.7
		c7.1,0,12.8,2.4,16.7,6.7c3.9,4.4,6,10.8,6,18.5s-2.1,14.1-6,18.5C510.4,639.3,504.6,641.7,497.5,641.7z M497.5,630.9
		c5.4,0,8.5-3.4,8.5-9.6v-9.9c0-6.2-3-9.6-8.5-9.6s-8.5,3.4-8.5,9.6v9.9C489.1,627.5,492.1,630.9,497.5,630.9z"/>
	<path d="M568.7,608.7v31.8h-12.3v-8.5h-0.6c-1.5,6.3-6.8,9.6-14.2,9.6c-9.7,0-15-5.6-15-14.1c0-10.2,7.9-15.1,20.7-15.1h7.7v-3
		c0-4.7-2.2-7.7-8-7.7c-5.4,0-8.3,2.8-10.4,5.7l-8.1-7.2c4-5.8,9.3-9.2,19.5-9.2C561.8,591,568.7,597.2,568.7,608.7z M555.1,620.2
		h-6.6c-5.3,0-8,1.8-8,5.4v1.4c0,3.6,2.3,5.2,6.4,5.2c4.5,0,8.3-1.8,8.3-6.3V620.2z"/>
	<path d="M600.4,641.7c-7.3,0-13-2.5-16.8-6.9c-3.8-4.3-5.8-10.7-5.8-18.4s2-14,5.8-18.4c3.8-4.4,9.5-6.8,16.8-6.8
		c9.9,0,16.5,4.6,19.4,12.6l-11.1,4.8c-0.8-3.7-3.5-6.6-8.3-6.6c-5.5,0-8.4,3.9-8.4,10v9c0,6.2,2.9,10,8.4,10c5.4,0,7.7-3.3,9-7.3
		l10.6,4.6C616.8,637.5,610,641.7,600.4,641.7z"/>
	<path d="M628.6,572.3h13.6v28h0.6c1.8-5.1,5.8-9.3,13.5-9.3c10,0,15.1,6.9,15.1,19.2v30.3h-13.6v-29.2c0-6.3-1.7-9.2-6.7-9.2
		c-2.2,0-4.3,0.6-6,1.8c-1.7,1.2-2.8,3-2.8,5.3v31.3h-13.6V572.3z"/>
	<path d="M691.4,641.6c-5.5,0-8.1-3-8.1-7.4v-1.8c0-4.3,2.6-7.4,8.1-7.4s8.1,3,8.1,7.4v1.8C699.5,638.5,697,641.6,691.4,641.6z"/>
</g>
</svg>
